<svg xmlns="http://www.w3.org/2000/svg" xmlns:xlink="http://www.w3.org/1999/xlink" width="72" zoomAndPan="magnify" viewBox="0 0 54 40.499999" height="54" preserveAspectRatio="xMidYMid meet" version="1.2"><defs><clipPath id="fe893f046b"><path d="M 0.328125 0 L 52.929688 0 L 52.929688 39.265625 L 0.328125 39.265625 Z M 0.328125 0 "/></clipPath></defs><g id="421830f059"><g clip-rule="nonzero" clip-path="url(#fe893f046b)"><path style=" stroke:none;fill-rule:nonzero;fill:#ffffff;fill-opacity:1;" d="M 48.644531 39.257812 L 4.390625 39.257812 C 4.054688 39.214844 3.8125 39.175781 3.660156 39.144531 C 2.242188 38.847656 1.0625 37.734375 0.59375 36.410156 C 0.449219 36.015625 0.398438 35.597656 0.328125 35.179688 L 0.328125 4.015625 C 0.402344 3.816406 0.398438 3.589844 0.4375 3.421875 C 0.496094 3.1875 0.550781 2.925781 0.644531 2.710938 C 1.242188 1.3125 2.285156 0.449219 3.773438 0.121094 C 3.910156 0.0898438 4.046875 0.0703125 4.1875 0.0664062 C 4.371094 0.0585938 4.550781 0.0117188 4.738281 0.0117188 C 19.15625 0.0078125 33.726562 0.0078125 48.453125 0.0117188 C 48.5625 0.0117188 48.675781 0.0234375 48.785156 0.0390625 C 48.898438 0.0546875 49.007812 0.0703125 49.117188 0.0859375 C 49.503906 0.136719 49.84375 0.226562 50.140625 0.359375 C 51.550781 0.988281 52.589844 2.3125 52.695312 3.890625 C 52.710938 4.144531 52.738281 4.394531 52.734375 4.648438 C 52.675781 12.472656 52.707031 20.304688 52.710938 28.679688 C 52.710938 30.476562 52.757812 32.363281 52.730469 34.253906 C 52.722656 34.835938 52.710938 35.230469 52.691406 35.433594 C 52.574219 36.671875 51.988281 37.683594 50.9375 38.464844 C 50.4375 38.835938 49.875 39.070312 49.257812 39.171875 C 49.054688 39.203125 48.851562 39.234375 48.644531 39.257812 Z M 25.753906 23.605469 C 26.417969 23.855469 27.199219 23.691406 27.71875 23.210938 C 32.285156 18.960938 36.824219 14.75 41.339844 10.585938 C 43.949219 8.179688 46.535156 5.785156 49.097656 3.402344 C 49.136719 3.367188 49.136719 3.328125 49.101562 3.289062 C 49.042969 3.226562 48.957031 3.195312 48.839844 3.195312 C 33.886719 3.191406 19.113281 3.1875 4.519531 3.1875 C 4.234375 3.1875 4.070312 3.253906 3.875 3.4375 C 3.847656 3.464844 3.847656 3.492188 3.878906 3.519531 C 4.035156 3.65625 4.191406 3.796875 4.347656 3.9375 C 6.085938 5.527344 8.039062 7.332031 10.203125 9.351562 C 14.847656 13.683594 19.355469 17.875 23.726562 21.917969 C 24.117188 22.277344 24.515625 22.648438 24.921875 23.023438 C 25.25 23.324219 25.527344 23.519531 25.753906 23.605469 Z M 49.472656 7.558594 C 49.472656 7.546875 49.46875 7.539062 49.457031 7.53125 C 49.449219 7.519531 49.4375 7.519531 49.425781 7.527344 C 49.066406 7.804688 48.777344 8.132812 48.433594 8.453125 C 44.726562 11.898438 40.917969 15.449219 37.015625 19.101562 C 36.980469 19.136719 36.941406 19.167969 36.898438 19.195312 C 36.839844 19.238281 36.835938 19.28125 36.894531 19.328125 C 37.023438 19.4375 37.136719 19.539062 37.238281 19.632812 C 39.347656 21.609375 41.617188 23.75 44.046875 26.050781 C 44.519531 26.496094 44.933594 26.894531 45.289062 27.242188 C 45.675781 27.621094 46.085938 27.980469 46.472656 28.359375 C 46.773438 28.65625 47.066406 28.9375 47.355469 29.199219 C 47.835938 29.632812 48.277344 30.09375 48.761719 30.53125 C 48.988281 30.734375 49.210938 30.949219 49.425781 31.175781 C 49.433594 31.183594 49.445312 31.1875 49.457031 31.183594 C 49.476562 31.179688 49.488281 31.171875 49.488281 31.15625 C 49.488281 23.304688 49.488281 15.453125 49.484375 7.605469 C 49.484375 7.59375 49.484375 7.585938 49.480469 7.578125 C 49.476562 7.570312 49.472656 7.566406 49.472656 7.558594 Z M 3.644531 31.183594 C 3.96875 30.863281 4.320312 30.519531 4.699219 30.160156 C 8.089844 26.929688 11.441406 23.730469 14.75 20.558594 C 15.128906 20.195312 15.523438 19.824219 15.941406 19.4375 C 16.019531 19.359375 16.019531 19.285156 15.9375 19.210938 C 15.777344 19.066406 15.625 18.925781 15.484375 18.792969 C 11.484375 15.050781 7.71875 11.542969 4.191406 8.273438 C 3.976562 8.078125 3.777344 7.886719 3.582031 7.707031 C 3.574219 7.699219 3.570312 7.699219 3.570312 7.707031 L 3.554688 31.148438 C 3.554688 31.234375 3.582031 31.246094 3.644531 31.183594 Z M 26.695312 27 C 25.105469 27.070312 23.824219 26.496094 22.660156 25.398438 C 21.605469 24.402344 20.296875 23.179688 18.742188 21.730469 C 18.679688 21.667969 18.609375 21.609375 18.53125 21.550781 C 18.480469 21.515625 18.433594 21.515625 18.386719 21.558594 C 18.191406 21.738281 18.003906 21.9375 17.816406 22.117188 C 13.761719 25.988281 9.75 29.832031 5.773438 33.648438 C 5.269531 34.132812 4.824219 34.550781 4.429688 34.910156 C 4.207031 35.113281 4 35.3125 3.800781 35.511719 C 3.75 35.566406 3.75 35.617188 3.800781 35.671875 C 4.113281 36.007812 4.390625 35.984375 4.898438 35.984375 C 19.433594 35.984375 33.964844 35.984375 48.496094 35.984375 C 48.855469 35.984375 49.054688 35.949219 49.246094 35.660156 C 49.289062 35.59375 49.28125 35.53125 49.222656 35.476562 C 44.542969 31.046875 39.859375 26.609375 35.179688 22.171875 C 34.917969 21.921875 34.699219 21.699219 34.515625 21.5 C 34.460938 21.4375 34.398438 21.4375 34.335938 21.492188 C 33.015625 22.714844 31.707031 23.949219 30.398438 25.179688 C 29.898438 25.652344 29.507812 25.976562 29.234375 26.15625 C 28.425781 26.675781 27.578125 26.957031 26.695312 27 Z M 26.695312 27 "/></g></g></svg>