<svg xmlns="http://www.w3.org/2000/svg" xmlns:xlink="http://www.w3.org/1999/xlink" width="69" zoomAndPan="magnify" viewBox="0 0 51.75 51.749998" height="69" preserveAspectRatio="xMidYMid meet" version="1.2"><defs><clipPath id="8efade1143"><path d="M 0 0 L 50.753906 0 L 50.753906 50.753906 L 0 50.753906 Z M 0 0 "/></clipPath><clipPath id="9b38db362a"><path d="M 0 25.496094 C 0 39.578125 11.414062 50.992188 25.496094 50.992188 C 39.578125 50.992188 50.992188 39.578125 50.992188 25.496094 C 50.992188 11.414062 39.578125 0 25.496094 0 C 11.414062 0 0 11.414062 0 25.496094 Z M 0 25.496094 "/></clipPath></defs><g id="289e380d98"><g clip-rule="nonzero" clip-path="url(#8efade1143)"><g clip-rule="nonzero" clip-path="url(#9b38db362a)"><path style=" stroke:none;fill-rule:nonzero;fill:#f8f5f2;fill-opacity:1;" d="M 44.375 0.0976562 L 6.363281 0.0976562 C 2.871094 0.0976562 0 2.96875 0 6.445312 L 0 44.28125 C 0 47.757812 2.871094 50.65625 6.363281 50.65625 L 25.277344 50.65625 L 25.277344 33.207031 L 19.03125 33.207031 L 19.03125 25.476562 L 25.277344 25.476562 L 25.277344 19.054688 C 25.277344 13.832031 29.625 9.714844 34.875 9.714844 L 41.335938 9.714844 L 41.335938 17.546875 L 38.039062 17.546875 C 36.292969 17.546875 34.894531 17.316406 34.894531 19.054688 L 34.894531 25.476562 L 42.792969 25.476562 L 39.625 33.207031 L 34.894531 33.207031 L 34.894531 50.65625 L 44.375 50.65625 C 47.871094 50.65625 50.753906 47.757812 50.753906 44.28125 L 50.753906 6.445312 C 50.753906 2.96875 47.871094 0.0976562 44.375 0.0976562 Z M 44.375 0.0976562 "/></g></g></g></svg>