<svg xmlns="http://www.w3.org/2000/svg" xmlns:xlink="http://www.w3.org/1999/xlink" width="72" zoomAndPan="magnify" viewBox="0 0 54 54" height="72" preserveAspectRatio="xMidYMid meet" version="1.2"><defs><clipPath id="2326b4fb50"><path d="M 0.492188 0 L 52.773438 0 L 52.773438 52.28125 L 0.492188 52.28125 Z M 0.492188 0 "/></clipPath></defs><g id="167117c8f5"><path style=" stroke:none;fill-rule:nonzero;fill:#ffffff;fill-opacity:1;" d="M 26.632812 12.449219 C 19.082031 12.449219 12.9375 18.589844 12.9375 26.140625 C 12.9375 33.691406 19.082031 39.832031 26.632812 39.832031 C 34.183594 39.832031 40.324219 33.691406 40.324219 26.140625 C 40.324219 18.589844 34.183594 12.449219 26.632812 12.449219 Z M 26.632812 35.851562 C 21.277344 35.851562 16.921875 31.496094 16.921875 26.140625 C 16.921875 20.789062 21.277344 16.429688 26.632812 16.429688 C 31.984375 16.429688 36.339844 20.789062 36.339844 26.140625 C 36.339844 31.496094 31.984375 35.851562 26.632812 35.851562 Z M 26.632812 35.851562 "/><path style=" stroke:none;fill-rule:nonzero;fill:#ffffff;fill-opacity:1;" d="M 26.632812 19.917969 C 23.199219 19.917969 20.40625 22.707031 20.40625 26.140625 C 20.40625 29.574219 23.199219 32.363281 26.632812 32.363281 C 30.0625 32.363281 32.855469 29.574219 32.855469 26.140625 C 32.855469 22.707031 30.0625 19.917969 26.632812 19.917969 Z M 26.632812 19.917969 "/><g clip-rule="nonzero" clip-path="url(#2326b4fb50)"><path style=" stroke:none;fill-rule:nonzero;fill:#ffffff;fill-opacity:1;" d="M 37.585938 0 L 15.675781 0 C 7.304688 0 0.492188 6.8125 0.492188 15.1875 L 0.492188 37.09375 C 0.492188 45.46875 7.304688 52.28125 15.675781 52.28125 L 37.585938 52.28125 C 45.960938 52.28125 52.773438 45.46875 52.773438 37.09375 L 52.773438 15.1875 C 52.773438 6.8125 45.960938 0 37.585938 0 Z M 49.289062 37.09375 C 49.289062 43.546875 44.039062 48.796875 37.585938 48.796875 L 15.675781 48.796875 C 9.226562 48.796875 3.976562 43.546875 3.976562 37.09375 L 3.976562 15.1875 C 3.976562 8.734375 9.226562 3.484375 15.675781 3.484375 L 37.585938 3.484375 C 44.039062 3.484375 49.289062 8.734375 49.289062 15.1875 Z M 49.289062 37.09375 "/></g><path style=" stroke:none;fill-rule:nonzero;fill:#ffffff;fill-opacity:1;" d="M 42.066406 5.476562 C 39.183594 5.476562 36.839844 7.824219 36.839844 10.707031 C 36.839844 11.382812 36.972656 12.023438 37.207031 12.617188 C 37.738281 13.964844 38.808594 15.035156 40.15625 15.566406 C 40.746094 15.800781 41.390625 15.933594 42.066406 15.933594 C 44.949219 15.933594 47.296875 13.589844 47.296875 10.707031 C 47.296875 7.824219 44.949219 5.476562 42.066406 5.476562 Z M 42.066406 12.449219 C 41.105469 12.449219 40.324219 11.667969 40.324219 10.707031 C 40.324219 9.746094 41.105469 8.960938 42.066406 8.960938 C 43.027344 8.960938 43.808594 9.746094 43.808594 10.707031 C 43.808594 11.667969 43.027344 12.449219 42.066406 12.449219 Z M 42.066406 12.449219 "/></g></svg>