<svg xmlns="http://www.w3.org/2000/svg" xmlns:xlink="http://www.w3.org/1999/xlink" width="58" zoomAndPan="magnify" viewBox="0 0 43.5 59.249999" height="79" preserveAspectRatio="xMidYMid meet" version="1.2"><defs><clipPath id="adcfb629b3"><path d="M 4 7.648438 L 38 7.648438 L 38 58.011719 L 4 58.011719 Z M 4 7.648438 "/></clipPath></defs><g id="369cfc1da4"><g clip-rule="nonzero" clip-path="url(#adcfb629b3)"><path style=" stroke:none;fill-rule:nonzero;fill:#ffffff;fill-opacity:1;" d="M 21.109375 7.648438 C 8.179688 7.648438 0.078125 21.613281 6.492188 32.835938 L 6.527344 32.902344 L 20.992188 57.953125 C 21.019531 57.996094 21.058594 58.019531 21.109375 58.019531 C 21.160156 58.019531 21.199219 57.996094 21.222656 57.953125 L 35.683594 32.898438 L 35.71875 32.832031 C 42.136719 21.613281 34.03125 7.648438 21.109375 7.648438 Z M 21.121094 32.898438 C 20.589844 32.898438 20.0625 32.847656 19.542969 32.742188 C 19.023438 32.636719 18.515625 32.484375 18.027344 32.28125 C 17.535156 32.078125 17.070312 31.828125 16.628906 31.535156 C 16.1875 31.238281 15.777344 30.902344 15.402344 30.527344 C 15.027344 30.152344 14.691406 29.742188 14.398438 29.300781 C 14.101562 28.859375 13.851562 28.394531 13.648438 27.902344 C 13.445312 27.414062 13.292969 26.90625 13.191406 26.386719 C 13.085938 25.867188 13.035156 25.339844 13.035156 24.808594 C 13.035156 24.277344 13.085938 23.753906 13.191406 23.230469 C 13.292969 22.710938 13.449219 22.203125 13.652344 21.714844 C 13.855469 21.222656 14.105469 20.757812 14.398438 20.316406 C 14.695312 19.875 15.027344 19.464844 15.40625 19.089844 C 15.78125 18.714844 16.1875 18.378906 16.628906 18.085938 C 17.070312 17.789062 17.539062 17.539062 18.027344 17.335938 C 18.519531 17.132812 19.023438 16.980469 19.546875 16.878906 C 20.066406 16.773438 20.59375 16.722656 21.125 16.722656 C 21.65625 16.722656 22.179688 16.773438 22.699219 16.878906 C 23.222656 16.980469 23.726562 17.136719 24.21875 17.339844 C 24.707031 17.542969 25.175781 17.789062 25.617188 18.085938 C 26.058594 18.378906 26.464844 18.714844 26.84375 19.089844 C 27.21875 19.46875 27.550781 19.875 27.847656 20.316406 C 28.144531 20.757812 28.390625 21.222656 28.59375 21.714844 C 28.796875 22.207031 28.953125 22.710938 29.054688 23.230469 C 29.160156 23.753906 29.210938 24.277344 29.210938 24.808594 C 29.210938 25.339844 29.160156 25.867188 29.054688 26.386719 C 28.949219 26.910156 28.796875 27.414062 28.59375 27.90625 C 28.390625 28.394531 28.140625 28.863281 27.847656 29.304688 C 27.550781 29.746094 27.214844 30.152344 26.839844 30.527344 C 26.464844 30.90625 26.054688 31.238281 25.613281 31.535156 C 25.171875 31.828125 24.707031 32.078125 24.214844 32.28125 C 23.726562 32.484375 23.21875 32.640625 22.699219 32.742188 C 22.179688 32.847656 21.652344 32.898438 21.121094 32.898438 Z M 21.121094 32.898438 "/></g></g></svg>