<svg xmlns="http://www.w3.org/2000/svg" xmlns:xlink="http://www.w3.org/1999/xlink" width="76" zoomAndPan="magnify" viewBox="0 0 56.879997 59.249999" height="79" preserveAspectRatio="xMidYMid meet" version="1.2"><defs><clipPath id="872068eed9"><path d="M 0.296875 3.175781 L 55.84375 3.175781 L 55.84375 58.507812 L 0.296875 58.507812 Z M 0.296875 3.175781 "/></clipPath></defs><g id="9381ea3ea9"><path style=" stroke:none;fill-rule:nonzero;fill:#ffffff;fill-opacity:1;" d="M 28.601562 4.296875 C 21.730469 4.296875 15.140625 7.023438 10.285156 11.882812 C 5.425781 16.742188 2.699219 23.328125 2.699219 30.199219 C 2.726562 34.710938 3.933594 39.136719 6.203125 43.039062 C 6.164062 43.09375 6.136719 43.148438 6.128906 43.199219 C 6.050781 43.753906 4.214844 50.316406 3.167969 53.832031 C 2.5 56.074219 2.476562 56.304688 2.925781 56.304688 C 3.109375 56.304688 6.152344 55.542969 9.6875 54.613281 C 13.839844 53.519531 15.328125 53.125 16.246094 52.890625 C 20.03125 54.976562 24.28125 56.082031 28.601562 56.105469 C 35.472656 56.105469 42.058594 53.375 46.917969 48.515625 C 51.777344 43.660156 54.503906 37.070312 54.503906 30.199219 C 54.503906 26.796875 53.835938 23.429688 52.535156 20.285156 C 51.230469 17.144531 49.324219 14.289062 46.917969 11.882812 C 44.511719 9.476562 41.65625 7.570312 38.515625 6.269531 C 35.371094 4.964844 32.003906 4.296875 28.601562 4.296875 Z M 28.601562 7.996094 C 31.515625 7.996094 34.402344 8.570312 37.097656 9.6875 C 39.792969 10.804688 42.238281 12.4375 44.300781 14.5 C 46.363281 16.5625 47.996094 19.011719 49.113281 21.703125 C 50.230469 24.398438 50.804688 27.285156 50.804688 30.199219 C 50.804688 36.089844 48.464844 41.734375 44.300781 45.898438 C 40.136719 50.0625 34.488281 52.402344 28.601562 52.402344 C 24.199219 52.382812 19.902344 51.058594 16.257812 48.59375 L 11.648438 49.761719 C 11.640625 49.761719 11.625 49.765625 11.617188 49.769531 C 10.652344 49.988281 8.785156 50.441406 8.707031 50.367188 C 8.628906 50.289062 8.867188 49.25 9.3125 47.355469 L 10.4375 42.917969 C 7.820312 39.191406 6.410156 34.753906 6.398438 30.199219 C 6.398438 24.3125 8.738281 18.664062 12.902344 14.5 C 17.066406 10.335938 22.714844 7.996094 28.601562 7.996094 Z M 20.011719 17.894531 C 19.21875 17.9375 18.328125 18.300781 17.648438 18.917969 C 16.058594 20.363281 15.496094 21.691406 15.484375 24.003906 C 15.472656 27.253906 17.296875 30.597656 21.433594 34.910156 C 24.917969 38.539062 27.546875 40.238281 32.050781 41.773438 C 34.550781 42.625 35.386719 42.691406 37.339844 42.199219 C 38.195312 41.984375 39.214844 41.386719 40.070312 40.605469 C 41.265625 39.507812 41.457031 39.15625 41.617188 37.769531 L 41.714844 36.898438 C 41.738281 36.589844 41.453125 36.050781 41.035156 35.8125 L 38.96875 34.804688 C 37.410156 34.046875 35.851562 33.429688 35.5 33.429688 C 34.855469 33.429688 34.285156 33.945312 33.335938 35.394531 C 32.382812 36.847656 31.953125 36.867188 29.359375 35.566406 C 26.691406 34.230469 23.796875 31.582031 22.601562 29.382812 L 22.105469 28.472656 C 21.988281 28.257812 22.003906 27.882812 22.128906 27.703125 L 22.980469 26.589844 C 23.589844 25.789062 24.089844 24.90625 24.089844 24.628906 C 24.089844 23.886719 21.722656 18.464844 21.277344 18.179688 C 20.933594 17.960938 20.488281 17.871094 20.011719 17.894531 Z M 20.011719 17.894531 "/><g clip-rule="nonzero" clip-path="url(#872068eed9)"><path style=" stroke:none;fill-rule:nonzero;fill:#ffffff;fill-opacity:1;" d="M 3.734375 -5.367188 C -3.253906 -5.367188 -8.878906 0.257812 -8.878906 7.246094 L -8.878906 55.132812 C -8.878906 62.121094 -3.253906 67.746094 3.734375 67.746094 L 51.617188 67.746094 C 58.605469 67.746094 64.230469 62.121094 64.230469 55.132812 L 64.230469 7.246094 C 64.230469 0.257812 58.605469 -5.367188 51.617188 -5.367188 Z M 4.867188 -1.878906 L 50.484375 -1.878906 C 56.167969 -1.878906 60.742188 2.699219 60.742188 8.382812 L 60.742188 53.996094 C 60.742188 59.679688 56.167969 64.253906 50.484375 64.253906 L 4.867188 64.253906 C -0.816406 64.253906 -5.390625 59.679688 -5.390625 53.996094 L -5.390625 8.382812 C -5.390625 2.699219 -0.816406 -1.878906 4.867188 -1.878906 Z M 4.867188 -1.878906 "/></g></g></svg>